<?xml version="1.0" encoding="UTF-8" standalone="no"?>
<svg
   xmlns:dc="http://purl.org/dc/elements/1.1/"
   xmlns:cc="http://creativecommons.org/ns#"
   xmlns:rdf="http://www.w3.org/1999/02/22-rdf-syntax-ns#"
   xmlns:svg="http://www.w3.org/2000/svg"
   xmlns="http://www.w3.org/2000/svg"
   xmlns:sodipodi="http://sodipodi.sourceforge.net/DTD/sodipodi-0.dtd"
   xmlns:inkscape="http://www.inkscape.org/namespaces/inkscape"
   width="300pt"
   height="300pt"
   viewBox="0 0 300 300"
   version="1.1"
   id="svg2"
   inkscape:version="0.91 r13725"
   sodipodi:docname="bomb.svg">
  <metadata
     id="metadata84">
    <rdf:RDF>
      <cc:Work
         rdf:about="">
        <dc:format>image/svg+xml</dc:format>
        <dc:type
           rdf:resource="http://purl.org/dc/dcmitype/StillImage" />
        <dc:title></dc:title>
      </cc:Work>
    </rdf:RDF>
  </metadata>
  <defs
     id="defs82" />
  <sodipodi:namedview
     pagecolor="#ffffff"
     bordercolor="#666666"
     borderopacity="1"
     objecttolerance="10"
     gridtolerance="10"
     guidetolerance="10"
     inkscape:pageopacity="0"
     inkscape:pageshadow="2"
     inkscape:window-width="1280"
     inkscape:window-height="697"
     id="namedview80"
     showgrid="false"
     inkscape:zoom="0.70710678"
     inkscape:cx="129.9337"
     inkscape:cy="226.30474"
     inkscape:window-x="-32000"
     inkscape:window-y="-32000"
     inkscape:window-maximized="0"
     inkscape:current-layer="svg2" />
  <g
     id="#850301ff"
     transform="translate(0,-543)" />
  <g
     id="#ad0401ff"
     transform="translate(0,-543)" />
  <g
     id="#c42411ff"
     transform="translate(0,-543)" />
  <g
     id="#b50d07ff"
     transform="translate(0,-543)" />
  <g
     id="#d94c19ff"
     transform="translate(0,-543)" />
  <g
     id="#ad0200ff"
     transform="translate(0,-543)" />
  <g
     id="#800000ff"
     transform="translate(0,-543)" />
  <g
     id="#ab0000ff"
     transform="translate(0,-543)" />
  <g
     id="#ab0100ff"
     transform="translate(0,-543)" />
  <g
     id="#ea7c16ff"
     transform="translate(0,-543)" />
  <g
     id="#f7a70dff"
     transform="translate(0,-543)" />
  <g
     id="#b30b06ff"
     transform="translate(0,-543)" />
  <g
     id="#ffcc00ff"
     transform="translate(0,-543)" />
  <g
     id="#aa0000ff"
     transform="translate(0,-543)" />
  <g
     id="#b9140aff"
     transform="translate(0,-543)" />
  <g
     id="#000000ff"
     transform="matrix(0.22497818,0,0,0.22497818,83.763508,32.169009)"
     inkscape:export-xdpi="164.4229"
     inkscape:export-ydpi="164.4229">
    <path
       d="m 567.27514,167.60375 c 1.54661,2.7193 6.10081,7.6487 7.56806,10.17018 1.74857,3.00495 3.24885,5.8037 3.84696,8.23966 -3.19008,0.95618 -14.41215,4.22931 -27.0306,8.37407 -17.11489,5.62169 -37.60847,10.18221 -41.73916,12.06294 -2.82,1.28 -5.63,2.59 -8.38,4.01 -9.77,5.12 -19.1,11.07 -27.79,17.87 -2.63,2.06 -5.24,4.15 -7.76,6.34 -8.93,7.74 -17.16,16.26 -24.7,25.35 -2.28,2.74 -4.49,5.54 -6.64,8.39 -6.2,8.31 -12.05,16.91 -17.22,25.91 -2.55,4.08 0.74,8.64 3.42,11.73 6.38,6.7 14.65,11.6 23.46,14.4 4.68,1.26 10.91,2.53 14.52,-1.67 1.23,-1.87 2.37,-3.79 3.54,-5.7 5.07,-8.19 10.66,-16.07 16.79,-23.5 1.64,-1.96 3.33,-3.88 5.01,-5.8 6.48,-7.18 13.57,-13.85 21.38,-19.56 1.82,-1.35 3.66,-2.68 5.54,-3.95 7.49,-5 15.53,-9.15 23.93,-12.38 2.64,-0.99 5.31,-1.89 8.01,-2.71 4.05,-1.27 8.35,-2.95 12.52,-3.8 7.41171,-0.12372 15.10144,-2.78167 22.50891,-2.50213 -0.79049,4.32121 -0.89848,7.20016 -0.94518,11.01573 -0.0371,3.02758 -0.943,6.9932 -1.08373,10.1164 -24.64,0.25 -46.34,9.9 -64.55,26.6 8.42,10.49 15.43,22.31 19.28,35.26 2.92,9.69 3.96,20.25 1.1,30.09 -1.93,6.88 -6.33,12.64 -9.73,18.82 3.86,5.13 7.74,10.26 11.31,15.61 45.57,66.98 61.48,153.22 42.97,232.08 -9.1,39.59 -26.71,77.19 -51.34,109.5 -18.22,23.96 -40.3,44.95 -65.04,62.09 -61.03,42.43 -138.36,60.6 -211.9,49.7 -63.87,-9.12 -124.24,-40.62 -168.239998,-87.81 -48.35,-51.39 -76.87,-120.64 -79.56999998,-191.07 -2.63000002,-60.61 14.28999998,-121.99 48.27999998,-172.3 21.36,-31.95 49.3,-59.43 81.419998,-80.51 33.53,-22.06 71.57,-37.22 111.07,-44.36 33.07,-6.12 67.13,-6.2 100.31,-0.9 2.59,-4.5 5.04,-9.1 8.08,-13.31 6.4,-8.58 16.34,-13.81 26.52,-16.48 19.4,-4.99 39.93,-2.58 58.92,3.04 16.47344,-17.56979 36.52448,-33.86388 57.79969,-45.18561 1.40642,-0.74843 21.50054,-8.83274 29.08101,-11.35291 7.63414,-2.53802 9.68729,-3.5079 27.82583,-8.00156 m -172.05656,84.03013 c -8.75,3.62 -12.37,12.87 -17,20.38 -6.22,10.05 -12.15,20.28 -18.31,30.37 -2.23,3.6 -4.45,7.38 -5.04,11.66 -1.25,8.65 1.79,17.27 6.05,24.69 8.74,15.21 22.05,27.32 36.36,37.22 9.32,6.55 19.31,12.17 29.76,16.68 l -0.09,0.17 c 7.76,3.12 15.65,5.92 23.76,7.97 12.75,2.54 26.76,4.05 38.84,-1.83 5.59,-2.55 9.23,-7.68 12.03,-12.94 7.23,-12.1 14.48,-24.19 21.73,-36.27 3.5,-5.24 6.5,-11.19 5.94,-17.7 -1.05,-15.19 -10.61,-28.15 -20.73,-38.84 -6.89,8.21 -12.94,17.11 -18.45,26.3 -2.11,3.4 -4.42,7.03 -8.19,8.77 -7.12,3.5 -15.45,2.98 -22.99,1.31 -14.52,-3.33 -27.88,-12.62 -35.09,-25.77 -3.05,-5.75 -5.03,-13.18 -1.53,-19.18 6.25,-11.07 13.54,-21.52 21.27,-31.6 -15.38,-5 -32.97,-8.06 -48.32,-1.39 m -125.6,20.32 c -64.58,9.47 -125.26,42.86 -167.829998,92.33 -35.7,41.6 -60.08,93.29 -67.26,147.79 -6.01,44.43 -0.99,90.31 14.58,132.36 11.91,32.36 29.9,62.47 52.79,88.26 43.109998,48.92 104.099998,81.58 168.709998,90.33 46.86,6.53 95.38,0.89 139.41,-16.47 C 450.1104,787.9806 499.7604,745.3306 530.5604,691.5406 c 30.25,-49.9 43.72,-109.67 38.2,-167.75 -3.94,-42.47 -17.94,-83.95 -40.46,-120.17 -5.32,-8.24 -10.51,-16.68 -17.04,-24.03 -5.15,8.41 -10.05,16.97 -15.28,25.33 -7.43,11.31 -21.07,16.57 -34.04,18.02 -13.31,1.81 -26.61,-0.66 -39.7,-2.81 -4.16,-2.03 -8.73,-2.92 -13.03,-4.56 -15.13,-5.33 -29.39,-13.02 -42.25,-22.57 -15.82,-11.79 -29.92,-26.41 -39.18,-43.96 -6.09,-11.67 -10.17,-25.23 -7.26,-38.42 1.15,-5.79 4.65,-10.65 7.39,-15.76 3.74,-6.03 7.59,-12.03 10.86,-18.33 -28.67,-4.7 -58.07,-4.98 -86.8,-0.66 z"
       id="path20"
       inkscape:connector-curvature="0"
       style="opacity:1;fill:#000000"
       sodipodi:nodetypes="cscscccccccccccccccccccscccccccccccccccccccsscccccccccccccccccccccccccccccccccccccccccccc" />
  </g>
  <g
     id="#ccab7fff"
     transform="matrix(0.22497818,0,0,0.22497818,83.763508,32.169009)"
     inkscape:export-xdpi="164.4229"
     inkscape:export-ydpi="164.4229">
    <path
       d="m 539.16642,197.6536 c 2.26,0.45 -0.4651,1.37427 -0.32642,2.1064 -2.36796,11.5031 -6.00441,39.32317 -4.96,44.07 0.38,1.37 0.78,2.75 1.18,4.12 -8.4,3.23 -16.44,7.38 -23.93,12.38 -8.86,-16.58 -6.39,-36.5 -1.17,-53.82 7.16,-3.26 21.66642,-6.5964 29.20642,-8.8564 z"
       id="path23"
       inkscape:connector-curvature="0"
       style="opacity:1;fill:#ccab7f"
       sodipodi:nodetypes="ccccccc" />
    <path
       d="m 547.97274,195.3932 c 5.91427,-0.94137 23.9359,-10.70488 30.9259,-9.09488 -0.0687,0.38501 0.12711,12.08109 0.6647,24.53521 0.47166,10.92682 -1.29644,20.39215 -1.50559,28.15617 -0.0142,0.5273 -0.0645,0.85356 -0.28689,0.9261 -0.49675,0.162 -1.15409,0.0301 -1.66591,0.051 -6.80358,0.2765 -4.93683,0.87118 -12.22936,1.02086 -4.25118,0.0873 -20.50563,4.34966 -22.60138,4.56893 -4.04834,-2.66586 -3.76534,-15.76311 -1.28544,-27.48863 2.53521,-11.987 7.32175,-22.57867 7.98397,-22.67472 z"
       id="path25"
       inkscape:connector-curvature="0"
       style="opacity:1;fill:#ccab7f"
       sodipodi:nodetypes="ccssssscscc" />
    <path
       d="m 473.79,228.39 c 8.69,-6.8 18.02,-12.75 27.79,-17.87 -4.33,17.7 -4.48,37.22 4.01,53.76 -7.81,5.71 -14.9,12.38 -21.38,19.56 -12.26,-15.45 -12.83,-36.72 -10.42,-55.45 z"
       id="path27"
       inkscape:connector-curvature="0"
       style="opacity:1;fill:#ccab7f" />
    <path
       d="m 441.33,260.08 c 7.54,-9.09 15.77,-17.61 24.7,-25.35 -1.39,18.78 1.75,38.92 13.54,54.15 l -0.37,0.76 c -6.13,7.43 -11.72,15.31 -16.79,23.5 -9.97,-6.98 -15.29,-18.65 -18.24,-30.11 -1.91,-7.5 -2.71,-15.23 -2.84,-22.95 z"
       id="path29"
       inkscape:connector-curvature="0"
       style="opacity:1;fill:#ccab7f" />
    <path
       d="m 434.69,268.47 c 2.12,18.67 8.47,38.73 24.18,50.37 -3.61,4.2 -9.84,2.93 -14.52,1.67 -8.81,-2.8 -17.08,-7.7 -23.46,-14.4 -2.68,-3.09 -5.97,-7.65 -3.42,-11.73 5.17,-9 11.02,-17.6 17.22,-25.91 z"
       id="path33"
       inkscape:connector-curvature="0"
       style="opacity:1;fill:#ccab7f" />
  </g>
  <g
     id="#413628ff"
     transform="matrix(0.22497818,0,0,0.22497818,83.763508,32.169009)"
     inkscape:export-xdpi="164.4229"
     inkscape:export-ydpi="164.4229">
    <path
       d="m 539.12137,197.51589 c 2.335,-0.195 4.15706,-1.12774 9.06706,-2.20774 -4.4105,10.52192 -9.78213,27.89743 -9.24748,39.3657 0.003,0.0638 0.0494,2.3371 0.32147,4.4889 0.27686,2.18957 0.79921,4.13493 0.80262,4.19986 -2.60252,0.57668 -3.49042,0.49387 -6.18161,0.48856 -0.008,-0.0746 -0.43286,-1.11382 -0.71014,-2.61325 -0.29074,-1.57217 -0.39284,-3.34804 -0.40065,-3.42624 -1.29257,-12.95029 1.55528,-28.2677 6.34873,-40.29579 z"
       id="path36"
       inkscape:connector-curvature="0"
       style="opacity:1;fill:#413628"
       sodipodi:nodetypes="ccssccssc" />
    <path
       d="m 501.58,210.52 c 2.75,-1.42 5.56,-2.73 8.38,-4.01 -5.22,17.32 -7.69,37.24 1.17,53.82 -1.88,1.27 -3.72,2.6 -5.54,3.95 -8.49,-16.54 -8.34,-36.06 -4.01,-53.76 z"
       id="path38"
       inkscape:connector-curvature="0"
       style="opacity:1;fill:#413628" />
    <path
       d="m 466.03,234.73 c 2.52,-2.19 5.13,-4.28 7.76,-6.34 -2.41,18.73 -1.84,40 10.42,55.45 -1.68,1.92 -3.37,3.84 -5.01,5.8 l 0.37,-0.76 c -11.79,-15.23 -14.93,-35.37 -13.54,-54.15 z"
       id="path40"
       inkscape:connector-curvature="0"
       style="opacity:1;fill:#413628" />
    <path
       d="m 533.88,243.83 c 2.06,-0.19 4.11,-0.38 6.18,-0.51 0.61,1.49 1.61,2.13 3.01,1.92 -2.7,0.82 -5.37,1.72 -8.01,2.71 -0.4,-1.37 -0.8,-2.75 -1.18,-4.12 z"
       id="path42"
       inkscape:connector-curvature="0"
       style="opacity:1;fill:#413628" />
    <path
       d="m 434.69,268.47 c 2.15,-2.85 4.36,-5.65 6.64,-8.39 0.13,7.72 0.93,15.45 2.84,22.95 2.95,11.46 8.27,23.13 18.24,30.11 -1.17,1.91 -2.31,3.83 -3.54,5.7 -15.71,-11.64 -22.06,-31.7 -24.18,-50.37 z"
       id="path44"
       inkscape:connector-curvature="0"
       style="opacity:1;fill:#413628" />
  </g>
  <g
     id="#af0603ff"
     transform="translate(0,-543)" />
  <g
     id="#c92817ff"
     transform="translate(0,-543)" />
  <g
     id="#4f231aff"
     transform="translate(0,-543)" />
  <g
     id="#333031ff"
     transform="matrix(0.22497818,0,0,0.22497818,83.763508,32.169009)"
     inkscape:export-xdpi="164.4229"
     inkscape:export-ydpi="164.4229">
    <path
       d="m 377.61,255.61 c 15.35,-6.67 32.94,-3.61 48.32,1.39 -7.73,10.08 -15.02,20.53 -21.27,31.6 -3.5,6 -1.52,13.43 1.53,19.18 7.21,13.15 20.57,22.44 35.09,25.77 7.54,1.67 15.87,2.19 22.99,-1.31 3.77,-1.74 6.08,-5.37 8.19,-8.77 5.51,-9.19 11.56,-18.09 18.45,-26.3 10.12,10.69 19.68,23.65 20.73,38.84 0.56,6.51 -2.44,12.46 -5.94,17.7 -7.25,12.08 -14.5,24.17 -21.73,36.27 -2.8,5.26 -6.44,10.39 -12.03,12.94 -12.08,5.88 -26.09,4.37 -38.84,1.83 1.9,-5.91 5.26,-11.17 7.95,-16.73 4.91,-10.04 10.66,-19.67 15.12,-29.93 -8.21,-2.48 -16.19,-5.6 -24.12,-8.86 -7.84,15.65 -14.58,31.84 -22.62,47.38 -10.45,-4.51 -20.44,-10.13 -29.76,-16.68 7.74,-15.88 15.53,-31.73 23.1,-47.69 -18.71,-14.38 -36.2,-32.76 -42.16,-56.25 4.63,-7.51 8.25,-16.76 17,-20.38 z"
       id="path52"
       inkscape:connector-curvature="0"
       style="opacity:1;fill:#333031" />
  </g>
  <g
     id="#302d2eff"
     transform="matrix(0.22497818,0,0,0.22497818,83.763508,32.169009)"
     inkscape:export-xdpi="164.4229"
     inkscape:export-ydpi="164.4229">
    <path
       d="m 252.01,275.93 c 28.73,-4.32 58.13,-4.04 86.8,0.66 -3.27,6.3 -7.12,12.3 -10.86,18.33 -10.45,1.83 -21.35,6.56 -27.13,15.9 -5.34,8.64 -4.75,19.6 -1.28,28.81 4.22,11.04 11.23,20.87 19.53,29.21 16.44,17.22 37.05,29.99 58.81,39.36 14.18,5.87 29.04,10.64 44.4,11.99 13.09,2.15 26.39,4.62 39.7,2.81 12.97,-1.45 26.61,-6.71 34.04,-18.02 5.23,-8.36 10.13,-16.92 15.28,-25.33 6.53,7.35 11.72,15.79 17.04,24.03 22.52,36.22 36.52,77.7 40.46,120.17 5.52,58.08 -7.95,117.85 -38.2,167.75 -30.8,53.79 -80.45,96.44 -138.19,118.93 C 348.38,827.89 299.86,833.53 253,827 188.39,818.25 127.4,785.59 84.29,736.67 61.4,710.88 43.41,680.77 31.5,648.41 15.93,606.36 10.91,560.48 16.92,516.05 24.1,461.55 48.48,409.86 84.18,368.26 126.75,318.79 187.43,285.4 252.01,275.93 M 85.46,386.47 C 53.68,426.23 33.6,475.28 28.86,526 c -4.17,43.53 2.65,88.08 19.75,128.34 12.4,29.17 29.87,56.25 51.89,79.09 46.98,49.68 114.02,79.94 182.45,81.62 36.14,1.02 72.63,-5.13 106.14,-18.77 -20.28,-3.06 -40.51,-6.96 -60.03,-13.39 C 260.41,761.03 199.8,715.01 160.18,654.85 139.09,622.96 123.75,587.26 115.15,550.01 99.92,485.17 105.47,415.58 131.14,354.09 c 2.26,-6.16 5.52,-11.88 7.86,-18 -20.33,13.84 -38.14,31.25 -53.54,50.38 m 334.97,38.21 c -13.07,2.42 -24.87,10.89 -31.09,22.66 -6.85,12.64 -7.66,27.79 -4.69,41.65 4.41,20.37 16.45,38.74 32.53,51.85 12.66,10.25 28.33,17.4 44.77,18.03 12.06,0.53 24.51,-3.16 33.61,-11.25 9.42,-8.15 14.71,-20.3 15.84,-32.57 1.63,-17.17 -3.6,-34.47 -12.57,-49.02 -9.7,-15.63 -23.82,-28.71 -40.7,-36.2 -11.73,-5.2 -24.99,-7.62 -37.7,-5.15 m 11.09,144.97 c -10.23,1.4 -19.02,9.26 -21.71,19.19 -3.99,14.07 1.08,29.28 9.9,40.45 8.1,10.29 19.99,18.18 33.22,19.47 8.53,0.92 17.65,-1.81 23.56,-8.21 6.4,-6.74 8.54,-16.58 7.48,-25.61 -1.64,-14.43 -10.04,-27.63 -21.53,-36.31 -8.75,-6.56 -19.91,-10.65 -30.92,-8.98 z"
       id="path55"
       inkscape:connector-curvature="0"
       style="opacity:1;fill:#302d2e" />
  </g>
  <g
     id="#1a1919ff"
     transform="matrix(0.22497818,0,0,0.22497818,83.763508,32.169009)"
     inkscape:export-xdpi="164.4229"
     inkscape:export-ydpi="164.4229">
    <path
       d="m 342.3,306.36 c 6.16,-10.09 12.09,-20.32 18.31,-30.37 5.96,23.49 23.45,41.87 42.16,56.25 -7.57,15.96 -15.36,31.81 -23.1,47.69 -14.31,-9.9 -27.62,-22.01 -36.36,-37.22 -4.26,-7.42 -7.3,-16.04 -6.05,-24.69 0.59,-4.28 2.81,-8.06 5.04,-11.66 z"
       id="path58"
       inkscape:connector-curvature="0"
       style="opacity:1;fill:#1a1919" />
    <path
       d="m 432.05,349.23 c 7.93,3.26 15.91,6.38 24.12,8.86 -4.46,10.26 -10.21,19.89 -15.12,29.93 -2.69,5.56 -6.05,10.82 -7.95,16.73 -8.11,-2.05 -16,-4.85 -23.76,-7.97 l 0.09,-0.17 c 8.04,-15.54 14.78,-31.73 22.62,-47.38 z"
       id="path60"
       inkscape:connector-curvature="0"
       style="opacity:1;fill:#1a1919" />
  </g>
  <g
     id="#b50e08ff"
     transform="translate(0,-543)" />
  <g
     id="#810000ff"
     transform="translate(0,-543)" />
  <g
     id="#191718ff"
     transform="matrix(0.22497818,0,0,0.22497818,83.763508,32.169009)"
     inkscape:export-xdpi="164.4229"
     inkscape:export-ydpi="164.4229">
    <path
       d="m 300.82,310.82 c 5.78,-9.34 16.68,-14.07 27.13,-15.9 -2.74,5.11 -6.24,9.97 -7.39,15.76 -2.91,13.19 1.17,26.75 7.26,38.42 9.26,17.55 23.36,32.17 39.18,43.96 12.86,9.55 27.12,17.24 42.25,22.57 4.3,1.64 8.87,2.53 13.03,4.56 -15.36,-1.35 -30.22,-6.12 -44.4,-11.99 -21.76,-9.37 -42.37,-22.14 -58.81,-39.36 -8.3,-8.34 -15.31,-18.17 -19.53,-29.21 -3.47,-9.21 -4.06,-20.17 1.28,-28.81 z"
       id="path65"
       inkscape:connector-curvature="0"
       style="opacity:1;fill:#191718" />
    <path
       d="m 85.46,386.47 c 15.4,-19.13 33.21,-36.54 53.54,-50.38 -2.34,6.12 -5.6,11.84 -7.86,18 -25.67,61.49 -31.22,131.08 -15.99,195.92 8.6,37.25 23.94,72.95 45.03,104.84 39.62,60.16 100.23,106.18 168.88,128.04 19.52,6.43 39.75,10.33 60.03,13.39 -33.51,13.64 -70,19.79 -106.14,18.77 C 214.52,813.37 147.48,783.11 100.5,733.43 78.48,710.59 61.01,683.51 48.61,654.34 31.51,614.08 24.69,569.53 28.86,526 33.6,475.28 53.68,426.23 85.46,386.47 Z"
       id="path67"
       inkscape:connector-curvature="0"
       style="opacity:1;fill:#191718" />
  </g>
  <g
     id="#aa2411ff"
     transform="translate(0,-543)" />
  <g
     id="#c92918ff"
     transform="translate(0,-543)" />
  <g
     id="#1c080420"
     transform="translate(0,-543)" />
  <g
     id="#cb2c1aff"
     transform="translate(0,-543)" />
  <g
     id="#45160c4f"
     transform="translate(0,-543)" />
  <g
     id="#950f08ff"
     transform="translate(0,-543)" />
  <g
     id="#eeeeeeff"
     transform="matrix(0.22497818,0,0,0.22497818,83.763508,32.169009)"
     inkscape:export-xdpi="164.4229"
     inkscape:export-ydpi="164.4229">
    <path
       d="m 420.43,424.68 c 12.71,-2.47 25.97,-0.05 37.7,5.15 16.88,7.49 31,20.57 40.7,36.2 8.97,14.55 14.2,31.85 12.57,49.02 -1.13,12.27 -6.42,24.42 -15.84,32.57 -9.1,8.09 -21.55,11.78 -33.61,11.25 -16.44,-0.63 -32.11,-7.78 -44.77,-18.03 -16.08,-13.11 -28.12,-31.48 -32.53,-51.85 -2.97,-13.86 -2.16,-29.01 4.69,-41.65 6.22,-11.77 18.02,-20.24 31.09,-22.66 z"
       id="path76"
       inkscape:connector-curvature="0"
       style="opacity:1;fill:#eeeeee" />
    <path
       d="m 431.52,569.65 c 11.01,-1.67 22.17,2.42 30.92,8.98 11.49,8.68 19.89,21.88 21.53,36.31 1.06,9.03 -1.08,18.87 -7.48,25.61 -5.91,6.4 -15.03,9.13 -23.56,8.21 -13.23,-1.29 -25.12,-9.18 -33.22,-19.47 -8.82,-11.17 -13.89,-26.38 -9.9,-40.45 2.69,-9.93 11.48,-17.79 21.71,-19.19 z"
       id="path78"
       inkscape:connector-curvature="0"
       style="opacity:1;fill:#eeeeee" />
  </g>
</svg>
