<?xml version="1.0" encoding="UTF-8" standalone="no"?>
<svg
   xmlns:dc="http://purl.org/dc/elements/1.1/"
   xmlns:cc="http://creativecommons.org/ns#"
   xmlns:rdf="http://www.w3.org/1999/02/22-rdf-syntax-ns#"
   xmlns:svg="http://www.w3.org/2000/svg"
   xmlns="http://www.w3.org/2000/svg"
   xmlns:sodipodi="http://sodipodi.sourceforge.net/DTD/sodipodi-0.dtd"
   xmlns:inkscape="http://www.inkscape.org/namespaces/inkscape"
   width="300pt"
   height="300pt"
   viewBox="0 0 300 300"
   version="1.1"
   id="svg2"
   inkscape:version="0.91 r13725"
   sodipodi:docname="plus_minus.svg">
  <metadata
     id="metadata28">
    <rdf:RDF>
      <cc:Work
         rdf:about="">
        <dc:format>image/svg+xml</dc:format>
        <dc:type
           rdf:resource="http://purl.org/dc/dcmitype/StillImage" />
        <dc:title></dc:title>
      </cc:Work>
    </rdf:RDF>
  </metadata>
  <defs
     id="defs26" />
  <sodipodi:namedview
     pagecolor="#ffffff"
     bordercolor="#666666"
     borderopacity="1"
     objecttolerance="10"
     gridtolerance="10"
     guidetolerance="10"
     inkscape:pageopacity="0"
     inkscape:pageshadow="2"
     inkscape:window-width="1280"
     inkscape:window-height="697"
     id="namedview24"
     showgrid="false"
     inkscape:zoom="1.1946466"
     inkscape:cx="247.73352"
     inkscape:cy="138.54266"
     inkscape:window-x="-8"
     inkscape:window-y="-8"
     inkscape:window-maximized="1"
     inkscape:current-layer="#bccd63ff" />
  <g
     id="#363638ff"
     transform="translate(0,-594)" />
  <g
     id="#e95549ff"
     transform="matrix(0.34495561,0,0,0.34495561,25.161472,-35.32469)">
    <path
       d="m 136.80248,292.92055 c 1.68857,-0.11257 3.37713,-0.11919 5.0657,-0.13244 45.24032,0.0199 90.48064,-0.0132 135.72097,0.0132 7.56212,-0.053 15.03154,1.90046 21.91162,4.97299 13.89922,6.50263 24.79874,19.28276 28.6394,34.18187 1.59586,5.50936 1.90709,11.29022 1.80114,16.99161 0,22.06393 0,44.12123 0,66.18516 -0.0265,3.75458 0.1523,7.5224 -0.25825,11.26373 -0.0662,20.48793 0.0331,40.98911 -0.0463,61.47704 -0.84098,6.11857 -2.38386,12.21065 -5.35706,17.66704 -1.7283,4.28432 -4.81407,7.79389 -7.64159,11.38954 -8.39648,9.648 -20.44158,15.75332 -33.01643,17.64717 -23.19626,0.37082 -46.40576,-0.15231 -69.5954,0.34433 -24.51401,-0.007 -49.02139,0.0132 -73.52877,0 -12.08483,-0.0331 -24.15642,-4.3704 -33.42698,-12.14443 -11.833205,-9.72084 -19.123837,-24.73914 -19.216542,-40.0753 -0.02649,-45.25356 -0.01324,-90.50713 -0.0066,-135.76069 -0.384066,-14.08463 5.184891,-28.25534 15.177232,-38.20795 8.8004,-9.18447 21.10376,-14.87262 33.77793,-15.81292 m -15.88576,99.89688 c 0.14568,13.37609 0.13244,26.75881 0.007,40.1349 59.03359,0.0993 118.0738,0.0728 177.10076,0.0132 -0.053,-13.36947 0.0132,-26.73231 -0.0331,-40.10178 -59.02696,-0.11257 -118.04731,-0.0199 -177.07427,-0.0464 z"
       id="path6"
       inkscape:export-xdpi="259"
       inkscape:export-ydpi="259"
       inkscape:connector-curvature="0"
       style="opacity:1;fill:#e95549" />
    <path
       d="m 492.22243,590.24721 c 27.87789,-3.44335 56.86162,3.23807 80.38235,18.59409 17.35581,11.24386 31.80464,26.97732 41.3798,45.3264 9.76057,18.42855 14.42896,39.47934 13.70056,60.30498 -0.16554,9.38975 -2.41697,18.56098 -4.25121,27.71897 -1.49653,3.78106 -2.33088,7.78727 -3.99296,11.51536 -0.54961,1.84087 -1.81438,3.41024 -1.97993,5.3703 -2.21831,3.62214 -3.7612,7.62834 -6.03248,11.23062 -3.01294,5.37692 -6.5821,10.436 -10.48898,15.19047 -3.71484,5.44976 -8.84014,9.66787 -13.36947,14.38923 -11.57495,10.0718 -24.85834,18.30935 -39.32703,23.481 -5.18489,2.38386 -10.84655,3.41686 -16.36915,4.72136 -27.18923,6.19803 -56.43121,2.03952 -81.13725,-10.8002 -18.57423,-9.71422 -34.63878,-24.24913 -45.95548,-41.91616 -16.26321,-25.01727 -22.56057,-56.21932 -17.44189,-85.60036 4.08566,-24.31535 15.97184,-47.20039 33.34752,-64.66877 19.06424,-19.16356 44.63773,-31.81125 71.5356,-34.85729 m -74.0519,99.73796 c -0.0397,13.40257 0.0464,26.80515 -0.0464,40.20773 59.0071,0.13906 118.02745,0.0662 177.03455,0.0397 -0.0265,-13.41582 -0.0464,-26.82502 0.0132,-40.23422 -59.00048,0.007 -118.00096,0.0265 -177.00144,-0.0132 z"
       id="path8"
       inkscape:export-xdpi="259"
       inkscape:export-ydpi="259"
       inkscape:connector-curvature="0"
       style="opacity:1;fill:#e95549" />
  </g>
  <g
     id="#bccd63ff"
     transform="matrix(0.22842364,0,0,0.22842364,46.684291,56.487009)">
    <path
       d="m 523.12,54.05 c 12.87,-8.76 28.31,-13.64 43.88,-13.83 68.99,-0.03 137.98,0 206.98,-0.02 19,-0.01 37.93,7.05 52.22,19.59 17.33,14.83 27.71,37.44 27.6,60.26 0.01,32.97 -0.01,65.94 0.01,98.91 -0.08,8.03 0.21,16.06 -0.33,24.08 -0.06,27.97 -0.01,55.95 -0.02,83.92 0.6,9.97 -2.21,19.76 -5.62,29.01 -10.5,25.68 -35.12,45.7 -62.91,48.87 -0.96,0.4 -1.95,0.63 -2.97,0.68 -30,-0.04 -59.99,-0.01 -89.99,-0.01 -13.3,0.73 -26.64,0.22 -39.96,0.37 -28.35,-0.01 -56.71,0.02 -85.06,-0.01 -16.8,-0.2 -33.44,-5.88 -46.85,-15.98 -14.72,-10.95 -25.42,-27.18 -29.69,-45.02 -3.04,-11.38 -2.2,-23.24 -2.29,-34.88 -0.02,-59 0,-118 -0.02,-177 0.08,-9.66 -0.49,-19.44 1.68,-28.93 3.96,-20.2 16.35,-38.47 33.34,-50.01 m 118.44,36.23 c 0.12,34.45 0.07,68.9 0.02,103.35 -34.46,0.15 -68.94,0.15 -103.41,0 0.03,20.73 0.06,41.47 -0.02,62.2 34.54,-0.05 69.09,-0.12 103.63,0.04 0.07,34.45 0.22,68.91 -0.08,103.36 20.68,-0.3 41.36,0.05 62.04,-0.19 -0.11,-34.42 -0.04,-68.84 -0.04,-103.25 34.43,0.03 68.86,-0.06 103.3,0.05 0.07,-20.69 -0.15,-41.38 0.11,-62.07 -5.37,0.53 -10.76,0.06 -16.14,0.17 -29.06,-0.02 -58.13,0.07 -87.2,-0.06 -0.12,-34.54 -0.18,-69.08 0.03,-103.61 -20.75,0.03 -41.5,-0.01 -62.24,0.01 z"
       id="path11"
       inkscape:export-xdpi="259"
       inkscape:export-ydpi="259"
       inkscape:connector-curvature="0"
       style="opacity:1;fill:#bccd63"
       inkscape:export-filename="C:\Users\fabio\Desktop\plus.png" />
    <path
       d="m 194.19,490.2 c 42.1,-6.47 86.43,2.45 122.66,24.88 33.96,20.63 60.8,52.74 75.03,89.85 9.61,24.72 13.54,51.59 11.73,78.03 -0.25,2.71 -1.27,5.31 -1,8.08 -2.49,21.07 -8.17,41.89 -17.98,60.79 -23.23,46.89 -67.71,82.88 -118.57,95.15 -4.64,1.11 -9.29,2.53 -14.09,2.71 -2.34,1.46 -5.29,0.45 -7.77,1.57 -31.34,4.3 -63.84,-0.24 -93.07,-12.33 C 115.31,824.22 84.62,797.6 64.61,764.49 45.55,733.06 36.39,695.72 38.83,659.05 41.31,617.62 58.56,577.2 86.95,546.91 114.78,516.45 153.36,496.06 194.19,490.2 m -3.81,45.36 c -0.26,34.39 0.02,68.78 -0.14,103.16 -34.44,0.15 -68.88,-0.01 -103.32,0.09 -0.44,20.63 0.14,41.34 -0.29,61.99 34.57,0.27 69.14,0.05 103.7,0.1 0.09,34.5 0.01,69 0.05,103.51 20.59,-0.01 41.2,0.18 61.8,-0.1 -0.08,-34.42 -0.1,-68.84 0.02,-103.26 34.52,-0.36 69.06,0.05 103.59,-0.21 -0.02,-20.54 0.14,-41.08 -0.08,-61.62 -34.5,-0.28 -69.02,0.04 -103.52,-0.17 -0.15,-34.12 -0.03,-68.25 -0.06,-102.37 0.25,-1.66 -2.13,-0.94 -3.03,-1.17 -19.58,0.04 -39.15,-0.06 -58.72,0.05 z"
       id="path13"
       inkscape:connector-curvature="0"
       style="opacity:1;fill:#bccd63" />
  </g>
  <g
     id="#ffffffff"
     transform="matrix(0.34839955,0,0,0.34839955,42.075794,-45.838231)">
    <path
       d="m 433.8581,352.89177 c 13.59791,-0.0131 27.20238,0.0131 40.80685,-0.007 -0.13769,22.63914 -0.0983,45.28484 -0.0197,67.93055 19.05936,0.0852 38.11873,0.0262 57.17154,0.0393 3.52733,-0.0721 7.06121,0.23603 10.58198,-0.11145 -0.17046,13.56513 -0.0262,27.13026 -0.0721,40.69539 -22.58013,-0.0721 -45.15372,-0.0131 -67.7273,-0.0328 0,22.56047 -0.0459,45.1275 0.0262,67.69452 -13.55858,0.15736 -27.11715,-0.0721 -40.67572,0.12458 0.19669,-22.5867 0.0983,-45.17995 0.0525,-67.76665 -22.6457,-0.1049 -45.29796,-0.059 -67.94366,-0.0262 0.0525,-13.59136 0.0328,-27.18927 0.0131,-40.78062 22.59981,0.0983 45.20617,0.0983 67.79942,0 0.0328,-22.5867 0.0656,-45.17339 -0.0131,-67.76009 z"
       id="path16"
       inkscape:connector-curvature="0"
       style="opacity:1;fill:#ffffff" />
    <path
       d="m 71.172821,419.11111 c 58.443479,0.0262 116.880409,-0.0656 175.323889,0.0459 0.0459,13.23731 -0.0197,26.46806 0.0328,39.70537 -58.44348,0.059 -116.90007,0.0852 -175.350113,-0.0131 0.124571,-13.24387 0.137684,-26.49429 -0.0066,-39.73816 z"
       id="path18"
       inkscape:connector-curvature="0"
       style="opacity:1;fill:#ffffff" />
    <path
       d="m 138.04779,644.83382 c 12.83082,-0.0721 25.66164,-0.007 38.49901,-0.0328 0.59007,0.15079 2.15049,-0.32127 1.98658,0.76709 0.0197,22.37034 -0.059,44.74723 0.0393,67.11756 22.61947,0.13769 45.25206,-0.0721 67.87154,0.11146 0.14424,13.46678 0.0393,26.93357 0.0524,40.40035 -22.63914,0.17047 -45.28485,-0.0983 -67.91744,0.13769 -0.0787,22.56702 -0.0656,45.13405 -0.0131,67.70107 -13.50612,0.18358 -27.0188,0.059 -40.51837,0.0656 -0.0262,-22.62604 0.0262,-45.24551 -0.0328,-67.86499 -22.65881,-0.0328 -45.324183,0.11146 -67.989554,-0.0656 0.281924,-13.53891 -0.09835,-27.11715 0.190135,-40.64294 22.580138,-0.0656 45.160279,0.0393 67.740419,-0.059 0.1049,-22.5408 -0.0787,-45.08816 0.0918,-67.63551 z"
       id="path20"
       inkscape:connector-curvature="0"
       style="opacity:1;fill:#ffffff" />
    <path
       d="m 365.48827,713.34133 c 58.41726,0.0393 116.83452,0.0197 175.25177,0.0131 -0.059,13.27665 -0.0393,26.5533 -0.0131,39.83651 -58.42381,0.0262 -116.86074,0.0983 -175.28455,-0.0393 0.0918,-13.2701 0.007,-26.54019 0.0459,-39.81028 z"
       id="path22"
       inkscape:connector-curvature="0"
       style="opacity:1;fill:#ffffff" />
  </g>
</svg>
